<?xml version="1.0" encoding="UTF-8"?><!DOCTYPE svg PUBLIC "-//W3C//DTD SVG 1.1//EN" "http://www.w3.org/Graphics/SVG/1.1/DTD/svg11.dtd"><svg xmlns="http://www.w3.org/2000/svg"><symbol id="alert-outline" viewBox="0 0 24 24"><path fill="currentColor" d="M12 2L1 21h22M12 6l7.53 13H4.47M11 10v4h2v-4m-2 6v2h2v-2"/></symbol><symbol id="angle-arrow-down-white" viewBox="0 0 24 24"><path fill="#fff" d="M7.41 8.58L12 13.17l4.59-4.59L18 10l-6 6-6-6 1.41-1.42z"/></symbol><symbol id="angle-arrow-down" viewBox="0 0 24 24"><path d="M7.41 8.58L12 13.17l4.59-4.59L18 10l-6 6-6-6 1.41-1.42z"/></symbol><symbol id="angle-arrow-up" viewBox="0 0 24 24"><path d="M7.41 15.41L12 10.83l4.59 4.58L18 14l-6-6-6 6 1.41 1.41z"/></symbol><symbol id="arrow-left" viewBox="0 0 24 24"><path d="M20 11v2H8l5.5 5.5-1.42 1.42L4.16 12l7.92-7.92L13.5 5.5 8 11h12z"/></symbol><symbol id="arrow-right" viewBox="0 0 24 24"><path d="M4 11v2h12l-5.5 5.5 1.42 1.42L19.84 12l-7.92-7.92L10.5 5.5 16 11H4z"/></symbol><symbol id="calendar" viewBox="0 0 24 24"><path d="M19 19H5V8h14m-3-7v2H8V1H6v2H5c-1.11 0-2 .89-2 2v14a2 2 0 0 0 2 2h14a2 2 0 0 0 2-2V5a2 2 0 0 0-2-2h-1V1m-1 11h-5v5h5v-5z"/></symbol><symbol id="check-box-checked" viewBox="0 0 24 24"><g fill="none" fill-rule="evenodd"><path d="M0 0h24v24H0z"/><path fill="#1A1A1A" d="M5 3h14a2 2 0 0 1 2 2v14a2 2 0 0 1-2 2H5a2 2 0 0 1-2-2V5a2 2 0 0 1 2-2zm12.293 4.293l-6.921 6.921-3.665-3.664-1.414 1.414 5.079 5.079 8.335-8.336-1.414-1.414z"/></g></symbol><symbol id="check-box-disabled" viewBox="0 0 24 24"><g fill="none" fill-rule="evenodd"><path d="M0 0h24v24H0z"/><rect width="16" height="16" x="4" y="4" fill="#F5F5F5" stroke="#BFBFBF" stroke-width="2" rx="2"/></g></symbol><symbol id="check-box-focus" viewBox="0 0 24 24"><g fill="none" fill-rule="evenodd"><path fill="#FEBB30" d="M0 0h24v24H0V0z"/><rect width="16" height="16" x="4" y="4" fill="#FFF" stroke="#1A1A1A" stroke-width="2" rx="2"/></g></symbol><symbol id="check-box-unchecked" viewBox="0 0 24 24"><g fill="none" fill-rule="evenodd"><path d="M0 0h24v24H0z"/><rect width="16" height="16" x="4" y="4" fill="#FFF" stroke="#1A1A1A" stroke-width="2" rx="2"/></g></symbol><symbol id="check-circle-outline" viewBox="0 0 24 24"><path d="M12 2a10 10 0 0 1 10 10 10 10 0 0 1-10 10A10 10 0 0 1 2 12 10 10 0 0 1 12 2m0 2a8 8 0 0 0-8 8 8 8 0 0 0 8 8 8 8 0 0 0 8-8 8 8 0 0 0-8-8m-1 12.5L6.5 12l1.41-1.41L11 13.67l5.59-5.58L18 9.5l-7 7z"/></symbol><symbol id="check" viewBox="0 0 24 24"><path d="M21 7L9 19l-5.5-5.5 1.41-1.41L9 16.17 19.59 5.59 21 7z"/></symbol><symbol id="checkbox-blank-outline" viewBox="0 0 24 24"><path d="M19 3H5c-1.11 0-2 .89-2 2v14a2 2 0 0 0 2 2h14a2 2 0 0 0 2-2V5a2 2 0 0 0-2-2m0 2v14H5V5h14z"/></symbol><symbol id="checkbox-marked" viewBox="0 0 24 24"><path d="M10 17l-5-5 1.41-1.42L10 14.17l7.59-7.59L19 8m0-5H5c-1.11 0-2 .89-2 2v14a2 2 0 0 0 2 2h14a2 2 0 0 0 2-2V5a2 2 0 0 0-2-2z"/></symbol><symbol id="chevron-left" viewBox="0 0 24 24"><path d="M15.41 16.58L10.83 12l4.58-4.59L14 6l-6 6 6 6 1.41-1.42z"/></symbol><symbol id="chevron-right" viewBox="0 0 24 24"><path d="M8.59 16.58L13.17 12 8.59 7.41 10 6l6 6-6 6-1.41-1.42z"/></symbol><symbol id="close-circle-outline" viewBox="0 0 24 24"><path d="M12 20c-4.41 0-8-3.59-8-8s3.59-8 8-8 8 3.59 8 8-3.59 8-8 8m0-18C6.47 2 2 6.47 2 12s4.47 10 10 10 10-4.47 10-10S17.53 2 12 2m2.59 6L12 10.59 9.41 8 8 9.41 10.59 12 8 14.59 9.41 16 12 13.41 14.59 16 16 14.59 13.41 12 16 9.41 14.59 8z"/></symbol><symbol id="close-circle" viewBox="0 0 24 24"><g fill="none" fill-rule="evenodd"><path d="M0 0h24v24H0z"/><path fill="#FFF" d="M13.414 12l2.314-2.314-1.414-1.414L12 10.586 9.686 8.272 8.272 9.686 10.586 12l-2.31 2.31 1.413 1.415L12 13.415l2.31 2.31 1.415-1.414L13.415 12zM12 19a7 7 0 1 1 0-14 7 7 0 0 1 0 14z"/></g></symbol><symbol id="close" viewBox="0 0 24 24"><path d="M19 6.41L17.59 5 12 10.59 6.41 5 5 6.41 10.59 12 5 17.59 6.41 19 12 13.41 17.59 19 19 17.59 13.41 12 19 6.41z"/></symbol><symbol id="content-save" viewBox="0 0 24 24"><path d="M15 9H5V5h10m-3 14a3 3 0 0 1-3-3 3 3 0 0 1 3-3 3 3 0 0 1 3 3 3 3 0 0 1-3 3m5-16H5a2 2 0 0 0-2 2v14a2 2 0 0 0 2 2h14a2 2 0 0 0 2-2V7l-4-4z"/></symbol><symbol id="delete" viewBox="0 0 24 24"><path fill="currentColor" d="M19 4h-3.5l-1-1h-5l-1 1H5v2h14M6 19a2 2 0 0 0 2 2h8a2 2 0 0 0 2-2V7H6v12z"/></symbol><symbol id="dots-vertical" viewBox="0 0 24 24"><path d="M12 16a2 2 0 0 1 2 2 2 2 0 0 1-2 2 2 2 0 0 1-2-2 2 2 0 0 1 2-2m0-6a2 2 0 0 1 2 2 2 2 0 0 1-2 2 2 2 0 0 1-2-2 2 2 0 0 1 2-2m0-6a2 2 0 0 1 2 2 2 2 0 0 1-2 2 2 2 0 0 1-2-2 2 2 0 0 1 2-2z"/></symbol><symbol id="error" viewBox="0 0 24 24"><path d="M12 20c-4.41 0-8-3.59-8-8s3.59-8 8-8 8 3.59 8 8-3.59 8-8 8m0-18C6.47 2 2 6.47 2 12s4.47 10 10 10 10-4.47 10-10S17.53 2 12 2m2.59 6L12 10.59 9.41 8 8 9.41 10.59 12 8 14.59 9.41 16 12 13.41 14.59 16 16 14.59 13.41 12 16 9.41 14.59 8z"/></symbol><symbol id="help-circle-outline" viewBox="0 0 24 24"><path d="M11 18h2v-2h-2v2m1-16A10 10 0 0 0 2 12a10 10 0 0 0 10 10 10 10 0 0 0 10-10A10 10 0 0 0 12 2m0 18c-4.41 0-8-3.59-8-8s3.59-8 8-8 8 3.59 8 8-3.59 8-8 8m0-14a4 4 0 0 0-4 4h2a2 2 0 0 1 2-2 2 2 0 0 1 2 2c0 2-3 1.75-3 5h2c0-2.25 3-2.5 3-5a4 4 0 0 0-4-4z"/></symbol><symbol id="info" viewBox="0 0 24 24"><path d="M11 15h2v2h-2v-2m0-8h2v6h-2V7m1-5C6.47 2 2 6.5 2 12a10 10 0 0 0 10 10 10 10 0 0 0 10-10A10 10 0 0 0 12 2m0 18a8 8 0 0 1-8-8 8 8 0 0 1 8-8 8 8 0 0 1 8 8 8 8 0 0 1-8 8z"/></symbol><symbol id="magnify" viewBox="0 0 24 24"><path d="M9.5 3A6.5 6.5 0 0 1 16 9.5c0 1.61-.59 3.09-1.56 4.23l.27.27h.79l5 5-1.5 1.5-5-5v-.79l-.27-.27A6.516 6.516 0 0 1 9.5 16 6.5 6.5 0 0 1 3 9.5 6.5 6.5 0 0 1 9.5 3m0 2C7 5 5 7 5 9.5S7 14 9.5 14 14 12 14 9.5 12 5 9.5 5z"/></symbol><symbol id="menu-down" viewBox="0 0 24 24"><path d="M7 10l5 5 5-5H7z"/></symbol><symbol id="menu-left" viewBox="0 0 24 24"><path d="M14 7l-5 5 5 5V7z"/></symbol><symbol id="menu-right" viewBox="0 0 24 24"><path d="M10 17l5-5-5-5v10z"/></symbol><symbol id="menu-up" viewBox="0 0 24 24"><path d="M7 15l5-5 5 5H7z"/></symbol><symbol id="minus" viewBox="0 0 24 24"><path d="M19 13H5v-2h14v2z"/></symbol><symbol id="open-in-new" viewBox="0 0 24 24"><path d="M14 3v2h3.59l-9.83 9.83 1.41 1.41L19 6.41V10h2V3m-2 16H5V5h7V3H5a2 2 0 0 0-2 2v14a2 2 0 0 0 2 2h14a2 2 0 0 0 2-2v-7h-2v7z"/></symbol><symbol id="pencil" viewBox="0 0 24 24"><path d="M20.71 7.04c.39-.39.39-1.04 0-1.41l-2.34-2.34c-.37-.39-1.02-.39-1.41 0l-1.84 1.83 3.75 3.75M3 17.25V21h3.75L17.81 9.93l-3.75-3.75L3 17.25z"/></symbol><symbol id="plus" viewBox="0 0 24 24"><path d="M19 13h-6v6h-2v-6H5v-2h6V5h2v6h6v2z"/></symbol><symbol id="printer" viewBox="0 0 24 24"><path d="M18 3H6v4h12m1 5a1 1 0 0 1-1-1 1 1 0 0 1 1-1 1 1 0 0 1 1 1 1 1 0 0 1-1 1m-3 7H8v-5h8m3-6H5a3 3 0 0 0-3 3v6h4v4h12v-4h4v-6a3 3 0 0 0-3-3z"/></symbol><symbol id="radio-disabled" viewBox="0 0 24 24"><g fill="none" fill-rule="evenodd"><path d="M0 0h24v24H0z"/><circle cx="12" cy="12" r="8" fill="#F5F5F5" stroke="#BFBFBF" stroke-width="2"/></g></symbol><symbol id="radio-focused" viewBox="0 0 24 24"><g fill="none" fill-rule="evenodd"><path d="M0 0h24v24H0z"/><circle cx="12" cy="12" r="8" fill="#FFF" stroke="#1A1A1A" stroke-linejoin="square" stroke-width="2"/><circle cx="12" cy="12" r="10.5" stroke="#FEBB30" stroke-width="3"/></g></symbol><symbol id="radio-marked" viewBox="0 0 24 24"><g fill="none" fill-rule="evenodd"><path d="M0 0h24v24H0z"/><g stroke-linejoin="square"><circle cx="12" cy="12" r="6.5" fill="#1A1A1A" stroke="#FFF" stroke-width="5"/><circle cx="12" cy="12" r="8" stroke="#1A1A1A" stroke-width="2"/></g></g></symbol><symbol id="radio-unmarked" viewBox="0 0 24 24"><g fill="none" fill-rule="evenodd"><path d="M0 0h24v24H0z"/><circle cx="12" cy="12" r="8" fill="#FFF" stroke="#1A1A1A" stroke-width="2"/></g></symbol><symbol id="refresh" viewBox="0 0 24 24"><path d="M17.65 6.35A7.958 7.958 0 0 0 12 4a8 8 0 0 0-8 8 8 8 0 0 0 8 8c3.73 0 6.84-2.55 7.73-6h-2.08A5.99 5.99 0 0 1 12 18a6 6 0 0 1-6-6 6 6 0 0 1 6-6c1.66 0 3.14.69 4.22 1.78L13 11h7V4l-2.35 2.35z"/></symbol><symbol id="sort-acending" viewBox="0 0 24 24"><g fill="none" fill-rule="evenodd"><path d="M0 0h24v24H0z"/><path fill="#1A1A1A" d="M6 13l6 6 6-6z"/><path stroke="#1A1A1A" d="M16.793 10.5L12 5.707 7.207 10.5h9.586z"/></g></symbol><symbol id="sort-descending" viewBox="0 0 24 24"><g fill="none" fill-rule="evenodd"><path d="M0 0h24v24H0z"/><path stroke="#1A1A1A" d="M7.207 13.5L12 18.293l4.793-4.793H7.207z"/><path fill="#1A1A1A" d="M18 11l-6-6-6 6z"/></g></symbol><symbol id="sort-none" viewBox="0 0 24 24"><g fill="none" fill-rule="evenodd"><path d="M0 0h24v24H0z"/><path d="M7.207 13.5L12 18.293l4.793-4.793H7.207zm9.586-3L12 5.707 7.207 10.5h9.586z" stroke="#1A1A1A"/></g></symbol><symbol id="success" viewBox="0 0 24 24"><path d="M12 2a10 10 0 0 1 10 10 10 10 0 0 1-10 10A10 10 0 0 1 2 12 10 10 0 0 1 12 2m0 2a8 8 0 0 0-8 8 8 8 0 0 0 8 8 8 8 0 0 0 8-8 8 8 0 0 0-8-8m-1 12.5L6.5 12l1.41-1.41L11 13.67l5.59-5.58L18 9.5l-7 7z"/></symbol><symbol id="warning" viewBox="0 0 24 24"><path d="M12 2L1 21h22M12 6l7.53 13H4.47M11 10v4h2v-4m-2 6v2h2v-2"/></symbol></svg>