<svg xmlns="http://www.w3.org/2000/svg" xmlns:xlink="http://www.w3.org/1999/xlink" viewBox="-1362 17326 56.945 31.51"><defs><style>.a{clip-path:url(#a);}.b{fill:#897f72;}.c{fill:#3c332b;}</style><clipPath id="a"><path d="M-25,356.1H31.945v31.509H-25Z" transform="translate(25 -356.1)"/></clipPath></defs><g transform="translate(-1337 16969.9)"><g class="a" transform="translate(-25 356.1)"><path class="b" d="M35.936,356.1a1.7,1.7,0,1,1-1.836,1.69,1.772,1.772,0,0,1,1.836-1.69" transform="translate(-13.629 -356.1)"/></g><g class="a" transform="translate(-25 356.1)"><path class="b" d="M20.172,373.388a1.842,1.842,0,1,1-1.836-1.69,1.752,1.752,0,0,1,1.836,1.69" transform="translate(-2.125 -366.99)"/></g><g class="a" transform="translate(-25 356.1)"><path class="b" d="M37.741,371.651a1.786,1.786,0,0,1-1.87,1.72,1.74,1.74,0,1,1,1.87-1.72" transform="translate(-13.563 -365.735)"/></g><g class="a" transform="translate(-25 356.1)"><path class="b" d="M55.21,373.151a1.912,1.912,0,0,1-3.81,0,1.912,1.912,0,0,1,3.81,0" transform="translate(-24.936 -366.782)"/></g><g class="a" transform="translate(-25 356.1)"><path class="b" d="M37.741,385.151a1.875,1.875,0,1,1-1.87-1.751,1.81,1.81,0,0,1,1.87,1.751" transform="translate(-13.563 -375.161)"/></g><g class="a" transform="translate(-25 356.1)"><path class="b" d="M50.91,385.949a1.912,1.912,0,1,1-1.905-1.751,1.822,1.822,0,0,1,1.905,1.751" transform="translate(-22.126 -375.717)"/></g><g class="a" transform="translate(-25 356.1)"><path class="b" d="M22.736,384.4a1.7,1.7,0,1,1-1.836,1.69,1.772,1.772,0,0,1,1.836-1.69" transform="translate(-5.001 -375.859)"/></g><g class="a" transform="translate(-25 356.1)"><path class="c" d="M-25,408.929c0-.513,5.057-.543,5.161-.121,0,0,1.836,9.205,1.905,9.537h.139c.589-1.66,4.087-9.537,4.087-9.537.208-.423,4.815-.392,4.815.06a1.029,1.029,0,0,1-.139.513l-7.136,14.487c-.208.423-4.849.423-4.953,0L-24.9,409.352a1.868,1.868,0,0,1-.1-.423" transform="translate(25 -392.692)"/></g><g class="a" transform="translate(-25 356.1)"><path class="c" d="M54.915,411.943l.208-2.354c.312-.543,4.815-.272,4.849.091,0,.241-.139,1.72-.139,1.72,0-1.117,3.152-1.992,4.642-1.992a3.5,3.5,0,0,1,.866.03c.277.091-.346,3.712-.658,3.773-.589.151-1.074.121-2.044.332-1.282.3-2.736,1.117-3.048,1.841l-1,8.873c-.069.634-5.23.453-5.092.03.035-.03,1.316-11.68,1.42-12.344" transform="translate(-26.304 -393.231)"/></g><g class="a" transform="translate(-25 356.1)"><path class="c" d="M99.42,386.7l-1.455,12.254.139.03,4.815-5.795c.346-.392,5.334-.423,5.334-.151q0,.226-.416.634l-5.473,6.308,4.676,7.757c.1.211.277.513.173.634-.173.241-5.23.362-5.438-.03l-3.949-7-.139.03-.8,6.73c-.069.634-5.092.634-5.092,0l2.529-21.4c.069-.634,5.092-.634,5.092,0" transform="translate(-51.342 -377.133)"/></g><g class="a" transform="translate(-25 356.1)"><path class="c" d="M32.889,409.461c.069-.6-5.023-.6-5.092.03l-.554,4.829L26.1,424.009c0,.634,5.023.634,5.092,0l.8-6.73.277-2.414.242-2.233c.139-.966.242-2.022.381-3.169" transform="translate(-8.4 -393.043)"/></g></g></svg>