<?xml version="1.0" encoding="utf-8"?>
<!-- Generator: Adobe Illustrator 18.0.0, SVG Export Plug-In . SVG Version: 6.00 Build 0)  -->
<!DOCTYPE svg PUBLIC "-//W3C//DTD SVG 1.1//EN" "http://www.w3.org/Graphics/SVG/1.1/DTD/svg11.dtd">
<svg version="1.1" id="Layer_1" xmlns="http://www.w3.org/2000/svg" xmlns:xlink="http://www.w3.org/1999/xlink" x="0px" y="0px"
	 viewBox="0 0 960 273.4" enable-background="new 0 0 960 273.4" xml:space="preserve">
<g>
	<g>
		<path fill="#3C362F" d="M601.9,128.2h0.9c2.6,0,3.8,0.6,3.8,2.3l-7,67.2c0,1.5-1.8,2.3-4.4,2.3h-0.9c-2.6,0-3.8-0.6-3.8-2.3
			l7-67.2C597.8,129.1,599,128.2,601.9,128.2z"/>
		<path fill="#3C362F" d="M660.9,159.2L658,189c0,2,0.3,3.2,1.2,3.8c0.6,0.3,1.5,0.6,2.3,0.6l2.6-0.6c0.3,0,0.6,0.3,0.6,1.2
			s0,1.8-0.3,3.2c-0.3,1.5-0.9,2.3-2.3,2.6c-1.5,0.6-2.6,0.9-3.8,0.9c-6.1,0-9.3-3.2-9.3-9.9c0-1.2,0.3-6.4,1.5-15.2
			c0.9-9.1,1.5-13.7,1.5-14c0-5.3-2.6-7.9-7.6-7.9c-2.6,0-5.5,1.2-8.8,3.8c-2.9,2.3-5.5,6.7-7.6,12.6l-2.9,28c0,1.5-1.8,2.3-4.4,2.3
			h-0.3c-2.6,0-3.8-0.6-3.8-2.3c2.9-26.6,4.7-41.5,4.7-44.7v-3.5c0-1.5,2-2.3,5.8-2.3c1.8,0,2.6,2.6,2.6,7.6c0,0.3,0,0.6,0,1.2
			c5-7,11.1-10.2,18.1-10.2C656.6,146,660.9,150.4,660.9,159.2z"/>
		<path fill="#3C362F" d="M721.7,193.1l2.6-0.6c0.3,0,0.6,0.3,0.6,1.2c0,0.6,0,1.8-0.3,3.2s-0.9,2.3-2.3,2.6
			c-1.5,0.6-2.6,0.9-3.8,0.9c-6.1,0-9.3-3.2-9.3-9.9v-0.9c-4.1,7.3-9.3,11.1-16.4,11.1c-4.4,0-8.5-1.5-12.3-4.4c-2-1.5-3.8-3.8-5-7
			c-1.2-2.9-2-6.7-2-10.8c0-9.6,2.3-17.5,7-23.4c4.7-6.1,10.8-9.1,18.4-9.1c5.5,0,10.2,1.5,14,4.7l2.6-25.1c0-1.5,1.8-2.3,4.4-2.3
			h0.3c2.6,0,3.8,0.6,3.8,2.3c-4.4,40.3-6.4,61.3-6.4,62.8s0,2.6,0.3,3.2c0,0.6,0.6,0.9,0.9,1.2
			C720.2,193.1,721.1,193.1,721.7,193.1z M712.6,157.4c-3.2-2.6-7-3.8-11.1-3.8c-4.1,0-7.3,0.6-9.6,2c-2.3,1.5-4.4,3.2-5.5,5.8
			c-2.3,4.7-3.5,9.9-3.5,16.1s0.9,10.2,2.9,12.6s5,3.5,9.1,3.5c2.6,0,5.5-1.5,8.5-4.1c2.9-2.6,5.3-7,7.3-13.1L712.6,157.4z"/>
		<path fill="#3C362F" d="M747.4,123.2h0.3c2.6,0,3.8,0.6,3.8,2.3l-3.2,31c4.1-7,9.3-10.5,16.4-10.5c4.4,0,8.5,1.5,12.3,4.1
			c2,1.5,3.8,3.8,5,6.7c1.2,2.9,2,6.7,2,10.8c0,9.6-2.3,17.5-7.3,23.7c-5,6.1-11.7,9.3-19.6,9.3c-5.3,0-9.6-1.8-13.7-5.5
			c-0.9,3.5-2.3,5-4.4,5H738c-1.8,0-2.6-0.6-2.6-2.3l7.6-72.4C743.3,123.8,744.8,123.2,747.4,123.2z M744.8,189
			c3.2,2.6,6.7,4.1,10.5,4.1c4.1,0,7.3-0.6,9.9-2s4.7-3.2,5.8-5.8c2.3-4.7,3.8-10.2,3.8-16.9c0-9.9-4.1-14.9-12-14.9
			c-2.6,0-5.5,1.5-8.5,4.1c-2.9,2.6-5.3,7-7.3,13.1l-1.5,13.7C745.3,185.5,745,187.2,744.8,189z"/>
		<path fill="#3C362F" d="M829.2,189.5c1.5-0.9,2.3-1.5,2.3-1.5c0.3,0,0.6,0.6,0.6,1.8c0,1.2,0,2.3-0.6,4.4c-0.3,2-2.3,3.8-6.4,4.7
			c-4.1,0.9-7.3,1.8-10.5,1.8c-15.5,0-23.1-7-23.1-21c0-9.9,2.3-17.8,7-23.9c4.7-6.1,11.7-9.3,21-9.3c5.8,0,9.9,1.5,12.9,4.4
			s4.4,6.1,4.4,9.3s-0.9,6.4-2.3,8.8c-1.5,2.3-3.8,4.4-6.4,5.8c-5.3,2.6-11.7,4.1-18.7,4.1c-3.2,0-6.4-0.3-8.8-0.6v0.9
			c0,5.3,1.2,9.3,3.8,11.4c2.6,2.3,6.1,3.2,11.1,3.2C820.7,193.1,825.4,191.9,829.2,189.5z M819.2,153.3c-10.2,0-16.1,5.8-17.8,17.5
			h7.3c5.8,0,10.2-0.6,13.7-2.3c1.5-0.6,2.9-1.8,4.1-3.2c1.2-1.5,1.8-3.2,1.8-5c0-2-0.9-3.5-2.3-5
			C824.2,153.9,822.1,153.3,819.2,153.3z"/>
		<path fill="#3C362F" d="M851.1,153.3v-3.5c0-1.5,2-2.3,5.8-2.3c1.8,0,2.6,2.6,2.6,7.6c0,0.3,0,0.6,0,0.9c1.8-3.2,3.8-5.5,6.1-7.6
			c2.3-1.8,5-2.6,7.6-2.6c3.5,0,5,1.2,5,3.8c0,1.2-0.3,2.3-0.9,3.8c-0.6,1.2-1.5,2-2,2c0,0-0.6,0-1.5-0.6c-0.6-0.3-1.8-0.6-2.6-0.6
			c-2.3,0-4.7,1.2-7,3.8c-2.3,2.3-4.4,6.7-5.8,12.6l-2.9,27.5c0,1.5-1.8,2.3-4.4,2.3h-0.3c-2.6,0-3.8-0.6-3.8-2.3
			C849.6,171.4,851.1,156.5,851.1,153.3z"/>
		<path fill="#3C362F" d="M917.4,189.5c1.5-0.9,2.3-1.5,2.3-1.5c0.3,0,0.6,0.6,0.6,1.8c0,1.2,0,2.3-0.6,4.4c-0.3,2-2.3,3.8-6.4,4.7
			c-3.8,1.2-7.3,1.8-10.5,1.8c-15.5,0-23.1-7-23.1-21c0-9.9,2.3-17.8,7-23.9c4.7-6.1,11.7-9.3,21-9.3c5.8,0,9.9,1.5,12.9,4.4
			c2.9,2.9,4.4,6.1,4.4,9.3s-0.9,6.4-2.3,8.8c-1.5,2.3-3.8,4.4-6.4,5.8c-5.3,2.6-11.7,4.1-18.7,4.1c-3.2,0-6.4-0.3-8.8-0.6v0.9
			c0,5.3,1.2,9.3,3.8,11.4c2.6,2.3,6.1,3.2,11.1,3.2C908.6,193.1,913.3,191.9,917.4,189.5z M907.1,153.3c-10.2,0-16.1,5.8-17.8,17.5
			h7.3c5.8,0,10.2-0.6,13.7-2.3c1.5-0.6,2.9-1.8,4.1-3.2c1.2-1.5,1.8-3.2,1.8-5c0-2-0.9-3.5-2.3-5
			C912.4,153.9,910.1,153.3,907.1,153.3z"/>
		<path fill="#3C362F" d="M946.9,133.8h0.3c2.6,0,3.8,0.6,3.8,2.3l-1.2,10.8h8.8c1.2,0,1.8,0.6,1.8,2c0,1.5-0.3,2.6-1.5,3.8
			c-0.9,1.2-2,1.8-3.2,1.8h-6.4c-2.3,20.7-3.5,32.1-3.5,33.3c0,3.8,1.8,5.8,5,5.8c1.2,0,2.3,0,3.2-0.3c0.9-0.3,1.5-0.3,1.5-0.3
			c0.3,0,0.6,0.3,0.6,1.2c0,0.9,0,2-0.6,3.5c-0.6,2.3-2.9,3.2-7,3.2c-7.6,0-11.4-3.8-11.4-11.4l3.5-35.3h-5c-1.2,0-1.8-0.9-1.8-2.6
			c0-2.9,0.9-4.7,2.6-4.7h5l1.2-10.8C942.8,134.3,944.2,133.8,946.9,133.8z"/>
	</g>
	<polygon fill="#F68B2F" points="481.3,262 455.6,273.4 484.5,14.6 505.3,32.7 	"/>
</g>
<g>
	<g>
		<g>
			<g>
				<defs>
					<rect id="SVGID_1_" x="0.3" width="349" height="221.7"/>
				</defs>
				<clipPath id="SVGID_2_">
					<use xlink:href="#SVGID_1_"  overflow="visible"/>
				</clipPath>
				<path clip-path="url(#SVGID_2_)" fill="#857E72" d="M137.3,0c6.4,0,11.4,5.3,11.4,12s-5,12-11.4,12c-6.4,0-11.4-5.3-11.4-12
					S130.8,0,137.3,0"/>
			</g>
		</g>
	</g>
	<g>
		<g>
			<g>
				<defs>
					<rect id="SVGID_3_" x="0.3" width="349" height="221.7"/>
				</defs>
				<clipPath id="SVGID_4_">
					<use xlink:href="#SVGID_3_"  overflow="visible"/>
				</clipPath>
				<path clip-path="url(#SVGID_4_)" fill="#857E72" d="M111,44.7c0,6.7-5,12-11.4,12c-6.4,0-11.4-5.3-11.4-12s5-12,11.4-12
					C106,32.7,111,38.3,111,44.7"/>
			</g>
		</g>
	</g>
	<g>
		<g>
			<g>
				<defs>
					<rect id="SVGID_5_" x="0.3" width="349" height="221.7"/>
				</defs>
				<clipPath id="SVGID_6_">
					<use xlink:href="#SVGID_5_"  overflow="visible"/>
				</clipPath>
				<path clip-path="url(#SVGID_6_)" fill="#857E72" d="M148.7,41.5c0,6.7-5.3,12.3-11.7,12.3c-6.4,0-11.7-5.5-11.7-12.3
					s5.3-12.3,11.7-12.3C143.4,29.2,148.7,34.8,148.7,41.5"/>
			</g>
		</g>
	</g>
	<g>
		<g>
			<g>
				<defs>
					<rect id="SVGID_7_" x="0.3" width="349" height="221.7"/>
				</defs>
				<clipPath id="SVGID_8_">
					<use xlink:href="#SVGID_7_"  overflow="visible"/>
				</clipPath>
				<path clip-path="url(#SVGID_8_)" fill="#857E72" d="M186,44.7c0,6.7-5.3,12.3-11.7,12.3c-6.4,0-11.7-5.5-11.7-12.3
					s5.3-12.3,11.7-12.3C180.8,32.4,186,38,186,44.7"/>
			</g>
		</g>
	</g>
	<g>
		<g>
			<g>
				<defs>
					<rect id="SVGID_9_" x="0.3" width="349" height="221.7"/>
				</defs>
				<clipPath id="SVGID_10_">
					<use xlink:href="#SVGID_9_"  overflow="visible"/>
				</clipPath>
				<path clip-path="url(#SVGID_10_)" fill="#857E72" d="M148.7,70.1c0,6.7-5.3,12.3-11.7,12.3c-6.4,0-11.7-5.5-11.7-12.3
					c0-6.7,5.3-12.3,11.7-12.3C143.4,57.8,148.7,63.4,148.7,70.1"/>
			</g>
		</g>
	</g>
	<g>
		<g>
			<g>
				<defs>
					<rect id="SVGID_11_" x="0.3" width="349" height="221.7"/>
				</defs>
				<clipPath id="SVGID_12_">
					<use xlink:href="#SVGID_11_"  overflow="visible"/>
				</clipPath>
				<path clip-path="url(#SVGID_12_)" fill="#857E72" d="M176.7,71.8c0,7-5.3,12.3-11.7,12.3c-6.4,0-11.7-5.5-11.7-12.3
					c0-7,5.3-12.3,11.7-12.3C171.4,59.3,176.7,64.8,176.7,71.8"/>
			</g>
		</g>
	</g>
	<g>
		<g>
			<g>
				<defs>
					<rect id="SVGID_13_" x="0.3" width="349" height="221.7"/>
				</defs>
				<clipPath id="SVGID_14_">
					<use xlink:href="#SVGID_13_"  overflow="visible"/>
				</clipPath>
				<path clip-path="url(#SVGID_14_)" fill="#857E72" d="M109.2,59.9c6.1,0,11.4,5.3,11.4,11.7c0,6.7-5,11.7-11.4,11.7
					c-6.4,0-11.4-5.3-11.4-11.7S102.8,59.9,109.2,59.9"/>
			</g>
		</g>
	</g>
	<g>
		<g>
			<g>
				<defs>
					<rect id="SVGID_15_" x="0.3" width="349" height="221.7"/>
				</defs>
				<clipPath id="SVGID_16_">
					<use xlink:href="#SVGID_15_"  overflow="visible"/>
				</clipPath>
				<path clip-path="url(#SVGID_16_)" fill="#3C362F" d="M0.3,113.9c0-3.5,31-3.8,31.8-0.9c0,0,11.4,64.8,11.7,67.2h0.9
					c3.5-11.7,25.1-67.2,25.1-67.2c1.2-2.9,29.5-2.6,29.5,0.3c0,1.2-0.3,2.3-0.9,3.5L54.3,218.8c-1.2,2.9-29.8,2.9-30.4,0L0.6,116.8
					C0.6,115.7,0.3,114.5,0.3,113.9"/>
			</g>
		</g>
	</g>
	<g>
		<g>
			<g>
				<defs>
					<rect id="SVGID_17_" x="0.3" width="349" height="221.7"/>
				</defs>
				<clipPath id="SVGID_18_">
					<use xlink:href="#SVGID_17_"  overflow="visible"/>
				</clipPath>
				<path clip-path="url(#SVGID_18_)" fill="#3C362F" d="M175.8,131.4l1.2-16.6c2-3.8,29.5-1.8,29.8,0.6c0,1.8-0.6,12-0.6,12
					c0-7.9,19.3-14,28.6-14c2.6,0,4.1-0.3,5.3,0c1.8,0.6-2.3,26-4.1,26.6c-3.5,1.2-6.4,0.9-12.6,2.3c-7.9,2-16.6,7.9-18.4,12.9
					l-6.1,62.5c-0.3,4.7-32.1,3.2-31.3,0.3C167.4,218.2,174.9,136.4,175.8,131.4"/>
			</g>
		</g>
	</g>
	<g>
		<g>
			<g>
				<defs>
					<rect id="SVGID_19_" x="0.3" width="349" height="221.7"/>
				</defs>
				<clipPath id="SVGID_20_">
					<use xlink:href="#SVGID_19_"  overflow="visible"/>
				</clipPath>
				<path clip-path="url(#SVGID_20_)" fill="#3C362F" d="M295,67.2l-9.1,86.2l0.9,0.3l29.5-40.9c2-2.6,32.7-2.9,32.7-1.2
					c0,0.9-0.9,2.3-2.3,4.4l-33.6,44.4l28.6,54.6c0.6,1.5,1.8,3.5,1.2,4.7c-0.9,1.8-32.1,2.3-33.3-0.3L285.3,170l-0.9,0.3l-4.7,47.3
					c-0.3,4.7-31.3,4.7-31.3,0L264,66.9C264.3,62.5,295,62.5,295,67.2"/>
			</g>
		</g>
	</g>
	<g>
		<g>
			<g>
				<defs>
					<rect id="SVGID_21_" x="0.3" width="349" height="221.7"/>
				</defs>
				<clipPath id="SVGID_22_">
					<use xlink:href="#SVGID_21_"  overflow="visible"/>
				</clipPath>
				<path clip-path="url(#SVGID_22_)" fill="#3C362F" d="M150.4,115.4c0.3-4.4-31-4.4-31.3,0.3l-3.2,33.9l-7,68c0,4.7,31,4.7,31.3,0
					l4.7-47.3l1.8-16.9l1.5-15.8C149,130.8,149.5,123.2,150.4,115.4"/>
			</g>
		</g>
	</g>
</g>
</svg>
